<svg xmlns="http://www.w3.org/2000/svg" viewBox="0 0 32 32" width="32" height="32">
  <!-- 基于之前设计的Logo创建的favicon -->
  <!-- 主背景圆 -->
  <circle cx="16" cy="16" r="16" fill="#3b82f6" />
  
  <!-- AI导航图标主体 -->
  <path d="M16 4C9.37 4 4 9.37 4 16s5.37 12 12 12 12-5.37 12-12S22.63 4 16 4zm0 20c-4.41 0-8-3.59-8-8s3.59-8 8-8 8 3.59 8 8-3.59 8-8 8zm-1-14h2v8h-2zm0 10h2v2h-2z" fill="white" />
  
  <!-- 导航箭头元素 -->
  <path d="M15 10h2v2h-2zm0 5h2v2h-2z" fill="white" />
  
  <!-- AI相关的抽象元素 -->
  <circle cx="16" cy="16" r="4" fill="none" stroke="white" stroke-width="1.5" />
</svg>